<svg width="180" height="42" viewBox="0 0 180 42" fill="none" xmlns="http://www.w3.org/2000/svg">
<rect width="180" height="42" rx="4" fill="#EBEBEB"/>
<path d="M134.168 15.0077C134.536 15.0077 134.832 15.1454 135.057 15.4208C135.283 15.6962 135.396 16.0625 135.396 16.5197C135.396 16.975 135.284 17.3413 135.059 17.6186C134.835 17.894 134.541 18.0317 134.179 18.0317C133.976 18.0317 133.795 17.9849 133.635 17.8912C133.475 17.7975 133.351 17.6692 133.265 17.5062H133.254V18.9564H132.773V15.0583H133.229V15.5529H133.24C133.33 15.3843 133.456 15.2512 133.618 15.1538C133.78 15.0564 133.963 15.0077 134.168 15.0077ZM134.074 17.6017C134.33 17.6017 134.532 17.5043 134.681 17.3094C134.83 17.1146 134.905 16.8513 134.905 16.5197C134.905 16.1881 134.83 15.9248 134.681 15.73C134.532 15.5351 134.33 15.4377 134.074 15.4377C133.827 15.4377 133.628 15.537 133.477 15.7356C133.326 15.9342 133.251 16.1956 133.251 16.5197C133.251 16.8457 133.326 17.108 133.477 17.3066C133.628 17.5034 133.827 17.6017 134.074 17.6017Z" fill="black"/>
<path d="M137.072 18.0317C136.671 18.0317 136.349 17.8959 136.106 17.6242C135.863 17.3507 135.741 16.9825 135.741 16.5197C135.741 16.0569 135.863 15.6897 136.106 15.418C136.349 15.1444 136.671 15.0077 137.072 15.0077C137.471 15.0077 137.792 15.1444 138.035 15.418C138.278 15.6897 138.4 16.0569 138.4 16.5197C138.4 16.9806 138.278 17.3479 138.035 17.6214C137.792 17.895 137.471 18.0317 137.072 18.0317ZM136.456 17.3151C136.609 17.5062 136.814 17.6017 137.072 17.6017C137.329 17.6017 137.534 17.5071 137.685 17.3179C137.836 17.1268 137.911 16.8607 137.911 16.5197C137.911 16.1787 137.836 15.9136 137.685 15.7243C137.534 15.5332 137.329 15.4377 137.072 15.4377C136.814 15.4377 136.609 15.5332 136.456 15.7243C136.305 15.9154 136.23 16.1806 136.23 16.5197C136.23 16.8588 136.305 17.124 136.456 17.3151Z" fill="black"/>
<path d="M142.538 15.0583L141.737 17.9811H141.249L140.6 15.7187H140.589L139.943 17.9811H139.454L138.651 15.0583H139.128L139.703 17.4359H139.714L140.363 15.0583H140.826L141.478 17.4359H141.489L142.063 15.0583H142.538Z" fill="black"/>
<path d="M144.084 15.432C143.861 15.432 143.676 15.5107 143.529 15.6681C143.384 15.8236 143.304 16.0241 143.289 16.2696H144.849C144.843 16.0222 144.77 15.8208 144.631 15.6653C144.491 15.5098 144.308 15.432 144.084 15.432ZM144.838 17.1436H145.31C145.267 17.4022 145.135 17.6148 144.912 17.7816C144.691 17.9484 144.425 18.0317 144.114 18.0317C143.704 18.0317 143.381 17.8968 143.145 17.627C142.91 17.3572 142.792 16.9919 142.792 16.5309C142.792 16.0738 142.91 15.7056 143.145 15.4264C143.383 15.1472 143.698 15.0077 144.092 15.0077C144.479 15.0077 144.784 15.1398 145.009 15.4039C145.233 15.6681 145.346 16.0222 145.346 16.4663V16.6518H143.286V16.6799C143.286 16.9609 143.362 17.1858 143.512 17.3544C143.663 17.523 143.868 17.6074 144.125 17.6074C144.306 17.6074 144.459 17.5652 144.586 17.4809C144.713 17.3966 144.797 17.2841 144.838 17.1436Z" fill="black"/>
<path d="M145.831 17.9811V15.0583H146.284V15.536H146.295C146.343 15.373 146.429 15.2447 146.552 15.151C146.677 15.0554 146.823 15.0077 146.991 15.0077C147.03 15.0077 147.094 15.0142 147.184 15.0273V15.5023C147.133 15.4836 147.047 15.4742 146.927 15.4742C146.741 15.4742 146.592 15.537 146.48 15.6625C146.368 15.788 146.312 15.9539 146.312 16.16V17.9811H145.831Z" fill="black"/>
<path d="M148.589 15.432C148.367 15.432 148.182 15.5107 148.034 15.6681C147.889 15.8236 147.809 16.0241 147.794 16.2696H149.354C149.348 16.0222 149.276 15.8208 149.136 15.6653C148.996 15.5098 148.814 15.432 148.589 15.432ZM149.343 17.1436H149.815C149.773 17.4022 149.64 17.6148 149.417 17.7816C149.197 17.9484 148.931 18.0317 148.62 18.0317C148.209 18.0317 147.886 17.8968 147.651 17.627C147.415 17.3572 147.297 16.9919 147.297 16.5309C147.297 16.0738 147.415 15.7056 147.651 15.4264C147.888 15.1472 148.204 15.0077 148.598 15.0077C148.984 15.0077 149.29 15.1398 149.514 15.4039C149.739 15.6681 149.851 16.0222 149.851 16.4663V16.6518H147.791V16.6799C147.791 16.9609 147.867 17.1858 148.018 17.3544C148.169 17.523 148.373 17.6074 148.631 17.6074C148.811 17.6074 148.965 17.5652 149.092 17.4809C149.219 17.3966 149.302 17.2841 149.343 17.1436Z" fill="black"/>
<path d="M151.425 18.0317C151.056 18.0317 150.759 17.894 150.533 17.6186C150.308 17.3432 150.196 16.9769 150.196 16.5197C150.196 16.0644 150.308 15.699 150.533 15.4236C150.757 15.1463 151.051 15.0077 151.413 15.0077C151.616 15.0077 151.797 15.0545 151.957 15.1482C152.117 15.2419 152.241 15.3702 152.327 15.5332H152.338V13.9256H152.819V17.9811H152.36V17.4865H152.352C152.258 17.657 152.131 17.791 151.971 17.8884C151.811 17.984 151.629 18.0317 151.425 18.0317ZM151.516 15.4377C151.262 15.4377 151.06 15.536 150.911 15.7328C150.762 15.9276 150.687 16.1899 150.687 16.5197C150.687 16.8513 150.762 17.1146 150.911 17.3094C151.06 17.5043 151.262 17.6017 151.516 17.6017C151.764 17.6017 151.964 17.5034 152.115 17.3066C152.266 17.108 152.341 16.8457 152.341 16.5197C152.341 16.1937 152.265 15.9323 152.112 15.7356C151.961 15.537 151.762 15.4377 151.516 15.4377Z" fill="black"/>
<path d="M156.054 18.0317C155.848 18.0317 155.664 17.984 155.502 17.8884C155.342 17.7928 155.215 17.6589 155.121 17.4865H155.11V17.9811H154.652V13.9256H155.132V15.5473H155.143C155.233 15.3786 155.358 15.2466 155.519 15.151C155.681 15.0554 155.862 15.0077 156.062 15.0077C156.425 15.0077 156.718 15.1454 156.94 15.4208C157.163 15.6962 157.274 16.0625 157.274 16.5197C157.274 16.9787 157.163 17.346 156.94 17.6214C156.718 17.895 156.422 18.0317 156.054 18.0317ZM155.96 15.4377C155.716 15.4377 155.516 15.5379 155.361 15.7384C155.207 15.937 155.129 16.1974 155.129 16.5197C155.129 16.8438 155.207 17.1052 155.361 17.3038C155.516 17.5024 155.716 17.6017 155.96 17.6017C156.214 17.6017 156.415 17.5052 156.562 17.3123C156.709 17.1174 156.783 16.8532 156.783 16.5197C156.783 16.1881 156.709 15.9248 156.562 15.73C156.415 15.5351 156.214 15.4377 155.96 15.4377Z" fill="black"/>
<path d="M157.918 19.0744C157.833 19.0744 157.764 19.0688 157.711 19.0576V18.6472C157.755 18.6566 157.817 18.6613 157.898 18.6613C158.033 18.6613 158.14 18.6247 158.221 18.5517C158.302 18.4805 158.37 18.3596 158.426 18.1891L158.492 17.984L157.432 15.0583H157.945L158.74 17.4921H158.749L159.544 15.0583H160.049L158.92 18.1863C158.796 18.5273 158.663 18.7606 158.519 18.8861C158.378 19.0117 158.177 19.0744 157.918 19.0744Z" fill="black"/>
<path d="M167.562 22.7226C167.306 22.7226 167.088 22.9397 167.088 23.2159V26.7681C166.887 26.9063 166.687 27.0049 166.486 27.0839C165.94 27.2812 165.32 27.2615 164.792 27.0247C164.373 26.8273 164.099 26.4524 163.99 25.9985C163.917 25.6827 163.917 25.367 163.917 25.0512C163.917 24.4 163.771 23.9066 163.644 23.5712C163.498 23.2357 163.352 23.0581 163.334 23.0186C163.17 22.8213 162.86 22.8015 162.678 22.9791C162.496 23.1567 162.477 23.4725 162.641 23.6698C162.641 23.6698 162.732 23.7882 162.824 24.0053C162.969 24.4 163.006 24.7947 163.006 25.2091C163.006 25.8801 163.133 26.5708 163.498 27.1233C163.753 27.518 164.154 27.814 164.573 27.9917C165.284 28.2877 166.085 28.2877 166.814 28.0114C166.887 27.9917 166.96 27.9522 167.033 27.9325C166.924 28.3271 166.632 28.6232 166.286 28.781C165.593 29.0968 164.719 28.9192 164.063 28.564C163.826 28.4258 163.553 28.5048 163.443 28.7613C163.316 28.9981 163.389 29.2941 163.625 29.4323C164.19 29.7677 164.828 29.9256 165.466 29.9256C165.849 29.9256 166.213 29.8664 166.541 29.7283C167.051 29.5309 167.489 29.1362 167.744 28.6232C167.908 28.2877 167.999 27.9127 167.999 27.518V23.1567C168.017 22.9002 167.817 22.7226 167.562 22.7226ZM162.313 25.4657C162.313 25.0512 162.149 24.5973 161.949 24.2421C161.894 24.1237 161.821 24.0448 161.748 23.9461C161.584 23.729 161.311 23.6896 161.092 23.8474C160.892 24.0251 160.837 24.3211 161.001 24.5381C161.056 24.5973 161.092 24.6763 161.129 24.7355C161.293 25.0315 161.366 25.367 161.366 25.6827C161.366 25.9985 161.293 26.3537 161.129 26.63C160.965 26.926 160.746 27.1628 160.455 27.3404C160.163 27.518 159.853 27.597 159.562 27.597C159.252 27.597 158.942 27.518 158.669 27.3404C158.395 27.1628 158.159 26.9457 157.995 26.63C157.831 26.334 157.758 25.9985 157.758 25.6827C157.758 25.367 157.831 25.0118 157.995 24.7355C158.159 24.4395 158.377 24.2027 158.669 24.0251C158.96 23.8474 159.27 23.7685 159.562 23.7685C159.635 23.7685 159.726 23.7685 159.799 23.7882C160.054 23.8277 160.291 23.6304 160.327 23.3738C160.364 23.0975 160.181 22.8607 159.926 22.8213C159.817 22.8015 159.689 22.8015 159.58 22.8015C159.106 22.8015 158.651 22.9199 158.213 23.1962C157.776 23.4725 157.43 23.8474 157.193 24.2816C156.956 24.7158 156.847 25.2091 156.847 25.7222C156.847 26.2156 156.956 26.7089 157.211 27.1825C157.466 27.6364 157.831 28.0114 158.231 28.2679C158.632 28.5048 159.106 28.6429 159.58 28.6429C160.054 28.6429 160.509 28.5245 160.947 28.2482C161.275 28.0509 161.566 27.7746 161.785 27.4588C161.894 27.7154 162.022 27.9522 162.149 28.1693C162.295 28.4061 162.587 28.4653 162.787 28.3074C163.006 28.1693 163.06 27.8535 162.915 27.6364C162.55 26.9852 162.313 26.255 162.313 25.4657ZM155.024 26.9655C154.879 27.1431 154.715 27.2812 154.514 27.3799C154.314 27.4983 154.113 27.5575 153.876 27.5772C153.803 27.597 153.712 27.597 153.639 27.597C153.348 27.597 153.056 27.5378 152.765 27.3996C152.528 27.2812 152.291 27.1431 152.072 26.9457C152.072 26.2748 152.072 24.8934 152.072 24.8539C152.2 24.5381 152.382 24.2816 152.601 24.104C152.838 23.9066 153.111 23.7882 153.439 23.7488C153.512 23.729 153.585 23.729 153.658 23.729C154.113 23.729 154.532 23.9066 154.86 24.2224C155.024 24.3605 155.152 24.5579 155.261 24.7552C155.371 24.9526 155.425 25.1894 155.462 25.4262C155.48 25.5051 155.48 25.5841 155.48 25.663C155.48 26.1761 155.316 26.63 155.024 26.9655ZM156.081 24.3211C155.844 23.8672 155.498 23.4725 155.079 23.1962C154.66 22.9199 154.186 22.7818 153.658 22.7818C153.548 22.7818 153.439 22.8015 153.33 22.8015C152.819 22.8607 152.382 23.0778 152.018 23.3541C151.908 23.433 151.817 23.5317 151.744 23.6304C151.671 23.4725 151.58 23.3343 151.507 23.2357C151.362 23.0383 151.252 22.9199 151.234 22.9002C151.034 22.7226 150.742 22.7226 150.578 22.9397C150.414 23.137 150.414 23.4528 150.614 23.6304C150.633 23.6501 150.76 23.7685 150.87 24.0053C150.942 24.1237 150.997 24.2619 151.034 24.4197C151.088 24.5776 151.106 24.7552 151.106 24.9723C151.106 26.6103 151.106 29.1757 151.106 29.1757C151.106 29.452 151.307 29.6691 151.58 29.6691C151.854 29.6691 152.054 29.452 152.054 29.1757C152.054 29.1757 152.054 28.7613 152.054 28.1495C152.163 28.2087 152.273 28.2679 152.382 28.3271C152.783 28.5048 153.184 28.6034 153.621 28.6034C153.73 28.6034 153.858 28.5837 153.967 28.5837C154.314 28.5245 154.642 28.4258 154.933 28.2482C155.371 27.9917 155.735 27.6364 155.99 27.2023C156.245 26.7484 156.391 26.255 156.391 25.7025C156.391 25.5841 156.373 25.4657 156.373 25.3473C156.355 24.9723 156.245 24.6368 156.081 24.3211ZM143.435 23.1765C142.997 22.9002 142.542 22.7818 142.068 22.7818C141.959 22.7818 141.831 22.8015 141.722 22.8015C141.467 22.841 141.284 23.0778 141.321 23.3541C141.357 23.6304 141.576 23.808 141.849 23.7685C141.922 23.7488 142.013 23.7488 142.086 23.7488C142.396 23.7488 142.706 23.8277 142.979 24.0053C143.271 24.1829 143.489 24.4197 143.653 24.7158C143.817 25.0118 143.89 25.3275 143.89 25.663C143.89 25.9985 143.817 26.3142 143.653 26.6103C143.489 26.926 143.252 27.1628 142.979 27.3207C142.706 27.4983 142.396 27.5772 142.086 27.5772C141.776 27.5772 141.467 27.4983 141.193 27.3207C140.902 27.1431 140.683 26.9063 140.519 26.6103C140.355 26.3142 140.282 25.9985 140.282 25.663C140.282 25.3275 140.355 25.0118 140.519 24.7158C140.555 24.6368 140.592 24.5776 140.647 24.5184C140.811 24.3013 140.756 24.0053 140.555 23.8277C140.355 23.6501 140.045 23.7093 139.899 23.9264C139.827 24.0251 139.754 24.1237 139.699 24.2224C139.444 24.6763 139.335 25.1696 139.335 25.6827C139.335 26.1958 139.462 26.6695 139.681 27.1233C139.918 27.5575 140.264 27.9522 140.701 28.2087C141.139 28.485 141.594 28.6034 142.068 28.6034C142.542 28.6034 142.997 28.4653 143.416 28.2285C143.817 27.9917 144.2 27.6167 144.437 27.1431C144.692 26.6892 144.801 26.1958 144.801 25.6827C144.801 25.1696 144.674 24.696 144.455 24.2421C144.218 23.808 143.872 23.433 143.435 23.1765ZM129.039 24.2224C129.148 24.4592 129.421 24.5776 129.658 24.4592C129.895 24.3408 130.005 24.0645 129.895 23.808L129.476 22.8213C129.403 22.6436 129.221 22.5252 129.039 22.5252C128.966 22.5252 128.911 22.545 128.838 22.5844C128.601 22.7028 128.492 22.9791 128.601 23.2357L129.039 24.2224ZM133.576 23.4725C133.74 23.2554 133.686 22.9594 133.485 22.7818C133.285 22.6042 132.975 22.6634 132.829 22.8805C132.72 23.0383 132.629 23.1962 132.519 23.3738C132.373 23.6304 132.264 23.8869 132.191 24.1435L131.134 26.9852L130.205 25.2486C130.132 25.0907 129.968 24.992 129.804 24.992C129.64 24.992 129.494 25.0907 129.403 25.2288L128.456 26.9655L126.907 22.841C126.834 22.6436 126.652 22.5252 126.469 22.5252H126.451C126.396 22.5252 126.342 22.545 126.287 22.5647C126.05 22.6634 125.941 22.9594 126.032 23.2159L127.945 28.3074C128.018 28.485 128.164 28.6034 128.346 28.6232C128.528 28.6429 128.692 28.5442 128.784 28.3863L129.804 26.4918L130.806 28.3666C130.897 28.5442 131.061 28.6429 131.244 28.6232C131.426 28.6034 131.572 28.485 131.645 28.3074L133.066 24.4987C133.139 24.3013 133.23 24.0843 133.339 23.8869C133.412 23.729 133.485 23.5909 133.576 23.4725ZM137.439 23.1765C137.002 22.9002 136.546 22.7818 136.073 22.7818C135.963 22.7818 135.836 22.8015 135.726 22.8015C135.471 22.841 135.289 23.0778 135.326 23.3541C135.362 23.6304 135.581 23.808 135.854 23.7685C135.927 23.7488 136.018 23.7488 136.091 23.7488C136.401 23.7488 136.71 23.8277 136.984 24.0053C137.275 24.1829 137.494 24.4197 137.658 24.7158C137.822 25.0118 137.895 25.3275 137.895 25.663C137.895 25.9985 137.822 26.3142 137.658 26.6103C137.494 26.926 137.257 27.1628 136.984 27.3207C136.71 27.4983 136.401 27.5772 136.091 27.5772C135.781 27.5772 135.471 27.4983 135.198 27.3207C134.906 27.1431 134.688 26.9063 134.524 26.6103C134.36 26.3142 134.287 25.9985 134.287 25.663C134.287 25.3275 134.36 25.0118 134.524 24.7158C134.56 24.6368 134.597 24.5776 134.651 24.5184C134.815 24.3013 134.761 24.0053 134.56 23.8277C134.36 23.6501 134.05 23.7093 133.904 23.9264C133.831 24.0251 133.758 24.1237 133.704 24.2224C133.449 24.6763 133.339 25.1696 133.339 25.6827C133.339 26.1958 133.467 26.6695 133.686 27.1233C133.922 27.5575 134.269 27.9522 134.706 28.2087C135.143 28.485 135.599 28.6034 136.073 28.6034C136.546 28.6034 137.002 28.4653 137.421 28.2285C137.822 27.9917 138.205 27.6167 138.442 27.1431C138.697 26.6892 138.806 26.1958 138.806 25.6827C138.806 25.1696 138.679 24.696 138.46 24.2421C138.241 23.808 137.895 23.433 137.439 23.1765ZM149.266 26.9655C149.12 27.1431 148.956 27.2812 148.756 27.3799C148.555 27.4983 148.355 27.5575 148.118 27.5772C148.045 27.597 147.954 27.597 147.881 27.597C147.589 27.597 147.298 27.5378 147.006 27.3996C146.769 27.2812 146.533 27.1431 146.314 26.9457C146.314 26.2748 146.314 24.8934 146.314 24.8539C146.441 24.5381 146.624 24.2816 146.842 24.104C147.079 23.9066 147.353 23.7882 147.681 23.7488C147.753 23.729 147.826 23.729 147.899 23.729C148.355 23.729 148.774 23.9066 149.102 24.2224C149.266 24.3605 149.393 24.5579 149.503 24.7552C149.612 24.9526 149.667 25.1894 149.703 25.4262C149.721 25.5051 149.721 25.5841 149.721 25.663C149.721 26.1761 149.557 26.63 149.266 26.9655ZM150.341 24.3211C150.104 23.8672 149.758 23.4725 149.339 23.1962C148.92 22.9199 148.446 22.7818 147.917 22.7818C147.808 22.7818 147.699 22.8015 147.589 22.8015C147.079 22.8607 146.642 23.0778 146.277 23.3541C146.168 23.433 146.077 23.5317 146.004 23.6304C145.931 23.4725 145.84 23.3343 145.767 23.2357C145.621 23.0383 145.512 22.9199 145.494 22.9002C145.293 22.7226 145.002 22.7226 144.838 22.9397C144.674 23.137 144.674 23.4528 144.874 23.6304C144.892 23.6501 145.02 23.7685 145.129 24.0053C145.202 24.1237 145.257 24.2619 145.293 24.4197C145.348 24.5776 145.366 24.7552 145.366 24.9723C145.366 26.6103 145.366 29.1757 145.366 29.1757C145.366 29.452 145.567 29.6691 145.84 29.6691C146.095 29.6691 146.314 29.452 146.314 29.1757C146.314 29.1757 146.314 28.7613 146.314 28.1495C146.423 28.2087 146.533 28.2679 146.642 28.3271C147.043 28.5048 147.444 28.6034 147.881 28.6034C147.99 28.6034 148.118 28.5837 148.227 28.5837C148.573 28.5245 148.901 28.4258 149.193 28.2482C149.63 27.9917 149.995 27.6364 150.25 27.2023C150.505 26.7484 150.651 26.255 150.651 25.7025C150.651 25.5841 150.633 25.4657 150.633 25.3473C150.614 24.9723 150.487 24.6368 150.341 24.3211Z" fill="#0E6FE3"/>
<path d="M118 11V31" stroke="#595959" stroke-opacity="0.3" stroke-width="0.5" stroke-linecap="round" stroke-linejoin="round"/>
<path d="M28 20C28 26.6274 33.3726 32 40 32C46.6274 32 52 26.6274 52 20C52 13.3726 46.6274 8 40 8C33.3726 8 28 13.3726 28 20Z" fill="url(#paint0_linear)"/>
<path fill-rule="evenodd" clip-rule="evenodd" d="M31.0203 12.0414C36.816 11.5506 43.1775 11.5316 48.9788 12.0414C46.7803 9.56312 43.5726 8 39.9999 8C36.4272 8 33.2187 9.56312 31.0203 12.0414Z" fill="#3C3C3C"/>
<path fill-rule="evenodd" clip-rule="evenodd" d="M49.0982 27.8235C43.4669 28.2589 36.7742 28.2898 30.9019 27.8235C33.1027 30.3808 36.3625 32 40 32C43.6376 32 46.8974 30.3808 49.0982 27.8235Z" fill="#3C3C3C"/>
<path fill-rule="evenodd" clip-rule="evenodd" d="M28.392 16.9504C36.1973 16.8121 43.8098 16.79 51.608 16.9504C51.8633 17.924 52 18.9466 52 20C52 20.9135 51.8973 21.8034 51.7037 22.6584C43.8074 22.8876 36.029 22.8299 28.2963 22.6584C28.1027 21.8034 28 20.9143 28 20C28 18.9466 28.1367 17.9248 28.392 16.9504Z" fill="#3C3C3C"/>
<path d="M28 20C28 26.6274 33.3726 32 40 32C46.6274 32 52 26.6274 52 20C52 13.3726 46.6274 8 40 8C33.3726 8 28 13.3726 28 20Z" fill="url(#paint1_radial)" fill-opacity="0.6"/>
<path d="M38.8056 17.4853C39.626 21.8268 43.8104 24.6812 48.1519 23.8609C52.4933 23.0406 55.3478 18.8561 54.5274 14.5147C53.7071 10.1732 49.5227 7.31876 45.1812 8.13909C40.8398 8.95941 37.9853 13.1439 38.8056 17.4853Z" fill="url(#paint2_radial)" fill-opacity="0.6"/>
<g clip-path="url(#clip0)">
<path d="M50.0714 29.0936H30.3894C31.5845 30.5503 33.0747 31.7241 34.7571 32.5339C36.4395 33.3437 38.2738 33.77 40.1332 33.7836H40.3276C42.187 33.7711 44.0215 33.3451 45.7039 32.5353C47.3863 31.7254 48.8771 30.551 50.0714 29.0936ZM30.3669 12.2112H50.0923C47.7405 9.34214 44.2224 7.51049 40.273 7.49982H40.1974C38.322 7.50357 36.4701 7.92731 34.7719 8.74125C33.0737 9.55519 31.5696 10.7396 30.3669 12.2112ZM52.7798 23.4664C52.9742 22.5612 53.0819 21.6232 53.0819 20.6639V20.631C53.0819 19.67 52.9742 18.7435 52.7798 17.8499H27.6809C27.481 18.7589 27.3798 19.6877 27.3789 20.6195L27.3789 20.6524C27.3789 21.6134 27.4865 22.5505 27.6809 23.4557H52.7798V23.4664ZM83.1334 16.4815C83.1334 16.9225 83.4676 17.2757 83.9101 17.2757C84.0126 17.2772 84.1142 17.2576 84.2091 17.2182C84.3041 17.1788 84.3903 17.1204 84.4628 17.0463C84.5352 16.9723 84.5925 16.8842 84.6311 16.7872C84.6697 16.6902 84.6889 16.5862 84.6876 16.4815C84.6881 16.377 84.6682 16.2734 84.6293 16.1768C84.5904 16.0802 84.5331 15.9924 84.4608 15.9186C84.3885 15.8447 84.3026 15.7863 84.2081 15.7465C84.1136 15.7068 84.0123 15.6867 83.9101 15.6872C83.4684 15.6872 83.1334 16.0404 83.1334 16.4815ZM87.1905 19.0745L87.1367 19.1074L87.0395 18.8207C87.0246 18.7746 86.9955 18.7346 86.9565 18.7068C86.9176 18.6789 86.8709 18.6647 86.8234 18.6663H86.327C86.2642 18.6669 86.2042 18.6928 86.1599 18.7383C86.1156 18.7837 86.0905 18.8452 86.0901 18.9094V25.4418C86.0901 25.5732 86.1977 25.6841 86.327 25.6841H87.2226C87.2854 25.6836 87.3455 25.658 87.39 25.6127C87.4344 25.5673 87.4597 25.506 87.4604 25.4418V20.1563L87.482 20.1448C87.8483 19.946 88.2266 19.8244 88.9495 19.8244C89.8234 19.8244 89.9961 20.1563 89.9961 20.6967V25.4418C89.9961 25.5732 90.1037 25.6841 90.2331 25.6841H91.1286C91.1914 25.6836 91.2515 25.658 91.296 25.6127C91.3405 25.5673 91.3658 25.506 91.3664 25.4418V20.7403C91.3664 19.2946 90.5359 18.5439 88.96 18.5439C88.3559 18.5332 87.7624 18.7107 87.1905 19.0745ZM84.568 18.8979C84.5675 18.8337 84.5425 18.7723 84.4981 18.7268C84.4538 18.6813 84.3938 18.6554 84.331 18.6548H83.4571C83.3943 18.6554 83.3343 18.6813 83.29 18.7268C83.2457 18.7723 83.2206 18.8337 83.2202 18.8979V25.4303C83.2202 25.5625 83.3278 25.6734 83.4571 25.6734H84.331C84.3939 25.6729 84.4542 25.6472 84.4987 25.6017C84.5432 25.5562 84.5683 25.4946 84.5688 25.4303L84.568 18.8979ZM81.6017 15.6322C81.6013 15.5678 81.5761 15.5062 81.5316 15.4607C81.4871 15.4152 81.4269 15.3895 81.3639 15.389H80.5005C80.4377 15.3897 80.3777 15.4155 80.3333 15.461C80.289 15.5065 80.2639 15.568 80.2635 15.6322V25.4311C80.2635 25.5625 80.3712 25.6734 80.5005 25.6734H81.3639C81.4269 25.6729 81.4871 25.6472 81.5316 25.6017C81.5761 25.5562 81.6013 25.4946 81.6017 25.4303V15.6322ZM68.2104 21.5468C68.2747 20.6524 68.5125 19.8137 69.7422 19.8137C70.8105 19.8137 71.0153 20.3986 71.037 21.5468V21.5904H68.2096L68.2104 21.5468ZM66.8185 22.1645C66.8185 23.0581 66.8185 25.8056 69.7317 25.8056C70.6056 25.8056 71.188 25.7506 71.9326 25.5075C71.9752 25.4899 72.0115 25.4593 72.0366 25.42C72.0618 25.3806 72.0745 25.3343 72.0731 25.2873V24.5481C72.0734 24.5083 72.0636 24.4691 72.0448 24.4343C72.0259 24.3995 71.9986 24.3702 71.9655 24.3493C71.9004 24.305 71.8249 24.3165 71.7486 24.3272C71.0908 24.4709 70.5735 24.5144 69.7317 24.5144C68.5125 24.5144 68.2747 23.7317 68.1992 22.8709L68.1888 22.8158H72.1486C72.2115 22.8154 72.2718 22.7897 72.3163 22.7442C72.3608 22.6987 72.386 22.6371 72.3864 22.5727V22.1538C72.3864 20.3986 72.1808 18.5119 69.7205 18.5119C66.8185 18.5341 66.8185 21.2709 66.8185 22.1645ZM74.8354 21.5468C74.8996 20.6524 75.1374 19.8137 76.3671 19.8137C77.425 19.8137 77.641 20.3986 77.6627 21.5468V21.5904H74.8241L74.8354 21.5468ZM73.4538 22.1645C73.4538 23.0581 73.4539 25.8056 76.3671 25.8056C77.2418 25.8056 77.8129 25.7506 78.5687 25.5075C78.6114 25.4899 78.6477 25.4593 78.6728 25.42C78.6979 25.3806 78.7107 25.3343 78.7093 25.2873V24.5481C78.7095 24.5082 78.6996 24.469 78.6806 24.4342C78.6616 24.3993 78.6341 24.3701 78.6009 24.3493C78.5366 24.305 78.4611 24.3165 78.3856 24.3272C77.727 24.4709 77.2089 24.5144 76.3671 24.5144C75.1478 24.5144 74.9109 23.7317 74.8354 22.8709V22.8158H78.7952C78.8582 22.8154 78.9184 22.7897 78.9629 22.7442C79.0074 22.6987 79.0326 22.6371 79.033 22.5727V22.1538C79.033 20.3986 78.8282 18.5119 76.3671 18.5119C73.4539 18.5341 73.4538 21.2709 73.4538 22.1645ZM93.9022 21.5468C93.9664 20.6524 94.2042 19.8137 95.4347 19.8137C96.4917 19.8137 96.7078 20.3986 96.7295 21.5468V21.5904H93.9022V21.5468ZM92.5206 22.1645C92.5206 23.0581 92.5206 25.8056 95.4347 25.8056C96.3086 25.8056 96.8805 25.7506 97.6355 25.5075C97.6781 25.4899 97.7144 25.4593 97.7396 25.42C97.7647 25.3806 97.7774 25.3343 97.7761 25.2873V24.5481C97.7763 24.5083 97.7666 24.4691 97.7477 24.4343C97.7289 24.3995 97.7016 24.3702 97.6684 24.3493C97.6034 24.305 97.5279 24.3165 97.4516 24.3272C96.7937 24.4709 96.2765 24.5144 95.4347 24.5144C94.2154 24.5144 93.9777 23.7317 93.9022 22.8709L93.8917 22.8158H97.8516C97.9145 22.8154 97.9747 22.7897 98.0192 22.7442C98.0637 22.6987 98.0889 22.6371 98.0893 22.5727V22.1538C98.0893 20.3986 97.8837 18.5119 95.4234 18.5119C92.5214 18.5341 92.5206 21.2709 92.5206 22.1645ZM62.502 21.0277C63.8835 21.0277 64.3687 21.4581 64.3687 22.6606C64.3687 23.477 64.1422 24.305 62.4699 24.305H60.4618V21.0277H62.502ZM62.3936 16.7353C63.8506 16.7353 64.045 17.4416 64.045 18.203C64.045 19.1739 63.5373 19.6487 62.4907 19.6487H60.4514V16.7353H62.3936ZM59.3076 15.3554C59.2748 15.3548 59.2422 15.361 59.2118 15.3736C59.1814 15.3862 59.1538 15.405 59.1306 15.4288C59.1074 15.4525 59.0892 15.4808 59.0769 15.512C59.0647 15.5431 59.0587 15.5764 59.0594 15.61V25.4089C59.0594 25.5518 59.1678 25.6619 59.3084 25.6619H62.4265C64.6594 25.6619 65.89 24.5916 65.89 22.6499C65.89 21.5904 65.3936 20.686 64.5518 20.2335L64.5092 20.2113C64.5309 20.1998 64.5414 20.1784 64.5414 20.1784C65.1887 19.693 65.5558 18.9751 65.5558 18.1809C65.5558 17.1213 65.1349 15.334 62.3293 15.334H59.3068L59.3076 15.3554Z" fill="black"/>
<path d="M81.9875 7.21429L81.9875 22.618" stroke="white" stroke-opacity="0.5" stroke-width="0.385093" stroke-linecap="round" stroke-linejoin="round"/>
</g>
<defs>
<linearGradient id="paint0_linear" x1="28" y1="20.0002" x2="51.9997" y2="20.0002" gradientUnits="userSpaceOnUse">
<stop stop-color="#D08B3D"/>
<stop offset="0.09" stop-color="#F0A431"/>
<stop offset="0.32" stop-color="#FBC72A"/>
<stop offset="0.49" stop-color="#FBCB2B"/>
<stop offset="0.63" stop-color="#FFE330"/>
<stop offset="0.72" stop-color="#FFE330"/>
<stop offset="0.83" stop-color="#FAD735"/>
<stop offset="1" stop-color="#E7AF3F"/>
</linearGradient>
<radialGradient id="paint1_radial" cx="0" cy="0" r="1" gradientUnits="userSpaceOnUse" gradientTransform="translate(39.9999 20.0002) scale(11.9999 12.5348)">
<stop offset="0.848958" stop-color="white" stop-opacity="0"/>
<stop offset="1" stop-color="white"/>
</radialGradient>
<radialGradient id="paint2_radial" cx="0" cy="0" r="1" gradientUnits="userSpaceOnUse" gradientTransform="translate(46.6665 16.0002) rotate(-10.7) scale(7.99991 8.35656)">
<stop stop-color="white"/>
<stop offset="0.848958" stop-color="white" stop-opacity="0"/>
</radialGradient>
<clipPath id="clip0">
<rect width="45.7143" height="11.8571" fill="white" transform="translate(56 14.0714)"/>
</clipPath>
</defs>
</svg>
